<svg fill="#000000" xmlns="http://www.w3.org/2000/svg"  viewBox="0 0 50 50" width="50px" height="50px"><path d="M 10.40625 0 C 5.144531 0 0.78125 3.925781 0.09375 9 L 49.90625 9 C 49.21875 3.925781 44.855469 0 39.59375 0 Z M 0 11 L 0 39.59375 C 0 45.328125 4.667969 50 10.40625 50 L 39.59375 50 C 45.332031 50 50 45.332031 50 39.59375 L 50 11 Z M 18.5625 16 L 25.96875 16 L 23.65625 17.21875 L 21.4375 17.21875 C 22.265625 18.039063 24 19.457031 24 22.25 C 24 24.964844 22.484375 26.292969 20.96875 27.5 C 20.5 27.980469 19.9375 28.507813 19.9375 29.3125 C 19.9375 30.117188 20.507813 30.582031 20.90625 30.90625 L 22.1875 31.9375 C 23.773438 33.292969 25.21875 34.535156 25.21875 37.0625 C 25.21875 40.511719 21.921875 44 15.71875 44 C 10.488281 44 7.96875 41.46875 7.96875 38.75 C 7.96875 37.433594 8.617188 35.566406 10.75 34.28125 C 12.980469 32.886719 16.027344 32.707031 17.65625 32.59375 C 17.148438 31.9375 16.5625 31.238281 16.5625 30.09375 C 16.5625 29.480469 16.753906 29.101563 16.9375 28.65625 C 16.535156 28.691406 16.140625 28.71875 15.78125 28.71875 C 11.957031 28.71875 9.78125 25.832031 9.78125 22.96875 C 9.78125 21.277344 10.535156 19.378906 12.09375 18.03125 C 14.144531 16.300781 16.617188 16 18.5625 16 Z M 16.28125 17.25 C 15.34375 17.25 14.332031 17.726563 13.75 18.46875 C 13.136719 19.230469 12.9375 20.203125 12.9375 21.15625 C 12.9375 23.617188 14.371094 27.6875 17.46875 27.6875 C 18.378906 27.6875 19.355469 27.242188 19.9375 26.65625 C 20.761719 25.808594 20.8125 24.652344 20.8125 24 C 20.8125 21.351563 19.273438 17.25 16.28125 17.25 Z M 34 24 L 38 24 L 38 29 L 43 29 L 43 33 L 38 33 L 38 38 L 34 38 L 34 33 L 29 33 L 29 29 L 34 29 Z M 18.03125 33.625 C 17.707031 33.625 15.765625 33.671875 14.25 34.1875 C 13.453125 34.484375 11.15625 35.363281 11.15625 37.96875 C 11.15625 40.574219 13.640625 42.46875 17.5 42.46875 C 20.964844 42.46875 22.8125 40.773438 22.8125 38.5 C 22.8125 36.628906 21.613281 35.636719 18.875 33.65625 C 18.585938 33.625 18.394531 33.625 18.03125 33.625 Z"/></svg>